# File created by Blade
# Date/Time:  Tue Jan 27 17:01:45 2015
#---------------------------------------------------------
:version 1.10
:name HOM
:units
  mass 1.0
  length 1.000000
  angle deg
:documentation
     Acclaim Skeleton File
:root
   axis xyz
   order TX TY TZ RX RY RZ
   position 0.000000 0.000000 0.000000
   orientation 0 0 0
:bonedata
   begin
      id 1
      name Spine_dum
      direction 0.000000 1.000000 0.000000
      length 7.539951
      axis 0.0 0.0 0.0 xyz
   end
   begin
      id 2
      name LeftUpLeg_dum
      direction 1.000000 0.000000 0.000000
      length 3.345476
      axis 0.0 0.0 0.0 xyz
   end
   begin
      id 3
      name RightUpLeg_dum
      direction -1.000000 0.000000 0.000000
      length 3.345476
      axis 0.0 0.0 0.0 xyz
   end
   begin
      id 4
      name Spine
      direction 0.000000 1.000000 0.000000
      length 0.000000
      axis 0.0 0.0 0.0 xyz
      dof rx ry rz
   end
   begin
      id 5
      name Spine_dum1
      direction 0.000000 1.000000 0.000000
      length 15.093809
      axis 0.0 0.0 0.0 xyz
   end
   begin
      id 6
      name Spine_dum2
      direction 0.000000 1.000000 0.000000
      length 9.738928
      axis 0.0 0.0 0.0 xyz
   end
   begin
      id 7
      name Spine_dum3
      direction 0.000000 1.000000 0.000000
      length 9.738928
      axis 0.0 0.0 0.0 xyz
   end
   begin
      id 8
      name Head
      direction 0.000000 1.000000 0.000000
      length 4.527550
      axis 0.0 0.0 0.0 xyz
      dof rx ry rz
   end
   begin
      id 9
      name LeftShoulder
      direction 1.000000 0.000000 0.000000
      length 7.084015
      axis 0.0 0.0 -90.0 xyz
      dof rx ry rz
   end
   begin
      id 10
      name LeftArm
      direction 1.000000 0.000000 0.000000
      length 10.259319
      axis 0.0 0.0 -90.0 xyz
      dof rx ry rz
   end
   begin
      id 11
      name LeftForeArm
      direction 1.000000 0.000000 0.000000
      length 9.896984
      axis 0.0 0.0 -90.0 xyz
      dof ry rz rx
   end
   begin
      id 12
      name LeftHand
      direction 0.000000 0.000000 0.000000
      length 0.000000
      axis 0.0 0.0 -90.0 xyz
      dof rx ry rz
   end
   begin
      id 13
      name LeftHand_dum1
      direction 0.000000 0.000000 0.000000
      length 0.000000
      axis 0.0 0.0 -90.0 xyz
   end
   begin
      id 14
      name LeftHand_dum2
      direction 1.000000 0.000000 0.000000
      length 3.937000
      axis 0.0 0.0 -90.0 xyz
   end
   begin
      id 15
      name LeftHandThumb1
      direction 0.000000 0.000000 1.000000
      length 3.937000
      axis 0.0 0.0 -90.0 xyz
      dof rx rz ry
   end
   begin
      id 16
      name RightShoulder
      direction -1.000000 0.000000 0.000000
      length 7.084015
      axis 0.0 0.0 90.0 xyz
      dof rx ry rz
   end
   begin
      id 17
      name RightArm
      direction -1.000000 0.000000 0.000000
      length 10.259319
      axis 0.0 0.0 90.0 xyz
      dof rx ry rz
   end
   begin
      id 18
      name RightForeArm
      direction -1.000000 0.000000 0.000000
      length 9.896984
      axis 0.0 0.0 90.0 xyz
      dof ry rz rx
   end
   begin
      id 19
      name RightHand
      direction 0.000000 0.000000 0.000000
      length 0.000000
      axis 0.0 0.0 90.0 xyz
      dof rx ry rz
   end
   begin
      id 20
      name RightHand_dum1
      direction 0.000000 0.000000 0.000000
      length 0.000000
      axis 0.0 0.0 90.0 xyz
   end
   begin
      id 21
      name RightHand_dum2
      direction -1.000000 0.000000 0.000000
      length 3.937000
      axis 0.0 0.0 90.0 xyz
   end
   begin
      id 22
      name RightHandThumb1
      direction 0.000000 0.000000 1.000000
      length 3.937000
      axis 0.0 0.0 90.0 xyz
      dof rx rz ry
   end
   begin
      id 23
      name LeftUpLeg
      direction 0.000000 -1.000000 0.000000
      length 19.114733
      axis 0.0 0.0 0.0 xyz
      dof rx ry rz
   end
   begin
      id 24
      name LeftLeg
      direction 0.000000 -1.000000 0.000000
      length 16.045604
      axis 0.0 0.0 0.0 xyz
      dof rx ry rz
   end
   begin
      id 25
      name LeftFoot
      direction 0.000000 -0.258819 0.965926
      length 5.543155
      axis 15.0 0.0 0.0 xyz
      dof rx ry rz
   end
   begin
      id 26
      name LeftToeBase
      direction 0.000000 0.000000 1.000000
      length 2.952750
      axis 0.0 0.0 0.0 xyz
      dof rx ry rz
   end
   begin
      id 27
      name RightUpLeg
      direction 0.000000 -1.000000 0.000000
      length 19.114733
      axis 0.0 0.0 0.0 xyz
      dof rx ry rz
   end
   begin
      id 28
      name RightLeg
      direction 0.000000 -1.000000 0.000000
      length 16.045604
      axis 0.0 0.0 0.0 xyz
      dof rx ry rz
   end
   begin
      id 29
      name RightFoot
      direction 0.000000 -0.258819 0.965926
      length 5.543155
      axis 15.0 0.0 0.0 xyz
      dof rx ry rz
   end
   begin
      id 30
      name RightToeBase
      direction 0.000000 0.000000 1.000000
      length 2.952750
      axis 0.0 0.0 0.0 xyz
      dof rx ry rz
   end
:hierarchy
   begin
      root Spine_dum LeftUpLeg_dum RightUpLeg_dum
      Spine_dum Spine
      LeftUpLeg_dum LeftUpLeg
      RightUpLeg_dum RightUpLeg
      Spine Spine_dum1 Spine_dum2 Spine_dum3
      Spine_dum1 Head
      Spine_dum2 LeftShoulder
      Spine_dum3 RightShoulder
      LeftShoulder LeftArm
      LeftArm LeftForeArm
      LeftForeArm LeftHand
      LeftHand LeftHand_dum1 LeftHand_dum2
      LeftHand_dum1 LeftHandThumb1
      RightShoulder RightArm
      RightArm RightForeArm
      RightForeArm RightHand
      RightHand RightHand_dum1 RightHand_dum2
      RightHand_dum1 RightHandThumb1
      LeftUpLeg LeftLeg
      LeftLeg LeftFoot
      LeftFoot LeftToeBase
      RightUpLeg RightLeg
      RightLeg RightFoot
      RightFoot RightToeBase
   end

# File created by Blade
# Date/Time:  Tue Jan 27 17:01:38 2015
# Frame Rate: 120.000 fps
#------------------------------------------------------
:FULLY-SPECIFIED
:DEGREES
725
root -0.523740 36.824505 4.863314 4.446882 -22.006477 -3.365740
Spine 3.173717 -6.899705 1.201213
Head -2.461035 8.034545 2.394046
LeftShoulder 10.293650 -6.732469 4.648082
LeftArm 37.518836 60.532988 -12.529565
LeftForeArm -67.663239 -0.000000 96.188728
LeftHand -16.781950 -0.000000 -35.030469
LeftHandThumb1 -26.253704 0.000000 33.147579
RightShoulder -1.601600 -20.664885 4.111821
RightArm 27.335479 -31.213907 48.510303
RightForeArm -148.719944 0.000000 32.552106
RightHand -1.295399 -0.000000 -1.955879
RightHandThumb1 -24.326973 -0.000000 -32.862282
LeftUpLeg 1.220389 24.583046 6.192706
LeftLeg 10.130026 -0.000000 -0.000000
LeftFoot -23.476856 11.059295 -24.232797
LeftToeBase 14.841832 -0.000000 -0.000000
RightUpLeg -6.689558 2.111624 -0.684227
RightLeg 10.026679 -0.000000 -0.000000
RightFoot -10.620164 4.817293 11.773173
RightToeBase 10.642318 -0.000000 -0.000000
726
root -0.518403 36.824360 4.861551 4.454866 -22.048822 -3.362674
Spine 3.188581 -6.979621 1.209109
Head -2.476669 8.059416 2.356545
LeftShoulder 10.260842 -6.715815 4.622686
LeftArm 37.638401 60.491132 -12.486937
LeftForeArm -67.695603 0.000000 96.189505
LeftHand -16.845484 -0.000000 -35.067701
LeftHandThumb1 -26.253704 0.000000 33.147579
RightShoulder -1.555637 -20.714372 4.082356
RightArm 27.433161 -31.370253 48.358260
RightForeArm -148.935337 -0.000000 32.494905
RightHand -1.288546 -0.000000 -2.193475
RightHandThumb1 -24.326973 -0.000000 -32.862282
LeftUpLeg 1.209242 24.639144 6.178148
LeftLeg 10.139869 -0.000000 -0.000000
LeftFoot -23.482257 11.057148 -24.210644
LeftToeBase 14.877134 -0.000000 -0.000000
RightUpLeg -6.726243 2.140878 -0.698598
RightLeg 10.063097 -0.000000 -0.000000
RightFoot -10.617705 4.829320 11.778801
RightToeBase 10.660172 -0.000000 -0.000000
727
root -0.514137 36.824409 4.859377 4.460902 -22.067634 -3.357568
Spine 3.204484 -7.056354 1.212332
Head -2.498792 8.058322 2.321575
LeftShoulder 10.243824 -6.714301 4.603594
LeftArm 37.749478 60.424249 -12.445895
LeftForeArm -67.620427 -0.000000 96.150761
LeftHand -17.037670 -0.000000 -35.619450
LeftHandThumb1 -26.253704 0.000000 33.147579
RightShoulder -1.528304 -20.716450 4.063189
RightArm 27.454012 -31.508868 48.280078
RightForeArm -149.198138 -0.000000 32.451695
RightHand -1.173090 -0.000000 -2.333004
RightHandThumb1 -24.326973 -0.000000 -32.862282
LeftUpLeg 1.193508 24.660535 6.163450
LeftLeg 10.151762 -0.000000 -0.000000
LeftFoot -23.482995 11.049996 -24.215237
LeftToeBase 14.842201 -0.000000 -0.000000
RightUpLeg -6.755113 2.156669 -0.709260
RightLeg 10.089831 -0.000000 -0.000000
RightFoot -10.606829 4.835056 11.785276
RightToeBase 10.574318 -0.000000 -0.000000
728
root -0.525091 36.825257 4.866781 4.390807 -21.939494 -3.419423
Spine 3.308303 -7.262387 1.270775
Head -2.515999 8.055921 2.294984
LeftShoulder 10.241489 -6.708176 4.569245
LeftArm 37.859937 60.381871 -12.362659
LeftForeArm -67.621915 -0.000000 96.141727
LeftHand -17.110607 0.000000 -35.624888
LeftHandThumb1 -26.253704 0.000000 33.147579
RightShoulder -1.516226 -20.770913 4.071805
RightArm 27.509680 -31.615251 48.161798
RightForeArm -149.466742 -0.000000 32.398359
RightHand -1.077905 -0.000000 -2.456742
RightHandThumb1 -24.326973 -0.000000 -32.862282
LeftUpLeg 1.285837 24.600181 6.292189
LeftLeg 10.162102 -0.000000 -0.000000
LeftFoot -23.471292 10.961648 -24.213158
LeftToeBase 14.853803 -0.000000 -0.000000
RightUpLeg -6.609040 2.042300 -0.620534
RightLeg 10.041273 -0.000000 -0.000000
RightFoot -10.603774 4.804936 11.767872
RightToeBase 10.618439 -0.000000 -0.000000
729
root -0.525741 36.824786 4.869592 4.318636 -21.955949 -3.431533
Spine 3.423822 -7.312005 1.265755
Head -2.567060 8.042701 2.277679
LeftShoulder 10.254050 -6.747108 4.554076
LeftArm 38.034281 60.362800 -12.223754
LeftForeArm -67.667262 -0.000000 96.112361
LeftHand -17.193443 -0.000000 -35.696464
LeftHandThumb1 -26.253704 0.000000 33.147579
RightShoulder -1.502506 -20.771198 4.066861
RightArm 27.504006 -31.713604 48.118579
RightForeArm -149.640454 -0.000000 32.331031
RightHand -1.163225 -0.000000 -2.576001
RightHandThumb1 -24.326973 -0.000000 -32.862282
LeftUpLeg 1.387062 24.652597 6.346474
LeftLeg 10.149726 -0.000000 -0.000000
LeftFoot -23.447174 10.929572 -24.162447
LeftToeBase 14.855018 -0.000000 -0.000000
RightUpLeg -6.534387 2.060166 -0.608562
RightLeg 10.053296 -0.000000 -0.000000
RightFoot -10.603363 4.787882 11.750270
RightToeBase 10.603352 -0.000000 -0.000000
730
root -0.522715 36.824777 4.868299 4.312770 -21.973428 -3.430100
Spine 3.447007 -7.340801 1.264091
Head -2.605167 8.006419 2.253324
LeftShoulder 10.286518 -6.814057 4.527046
LeftArm 38.160049 60.390231 -12.135221
LeftForeArm -67.737708 -0.000000 96.087553
LeftHand -17.307262 -0.000000 -35.740602
LeftHandThumb1 -26.253704 0.000000 33.147579
RightShoulder -1.511629 -20.778755 4.080506
RightArm 27.458526 -31.780120 48.091500
RightForeArm -149.895848 -0.000000 32.312387
RightHand -1.041013 -0.000000 -2.703633
RightHandThumb1 -24.326973 -0.000000 -32.862282
LeftUpLeg 1.396034 24.659093 6.342197
LeftLeg 10.144942 -0.000000 -0.000000
LeftFoot -23.466026 10.914314 -24.205468
LeftToeBase 14.878833 -0.000000 -0.000000
RightUpLeg -6.546087 2.067870 -0.614459
RightLeg 10.076715 -0.000000 -0.000000
RightFoot -10.609881 4.816718 11.763832
RightToeBase 10.650329 -0.000000 -0.000000
